<mxfile host="app.diagrams.net" agent="Mozilla/5.0 (Windows NT 10.0; Win64; x64) AppleWebKit/537.36 (KHTML, like Gecko) Chrome/140.0.0.0 Safari/537.36" version="28.2.5">
  <diagram name="Página-1" id="swyvAJSqL5fFOtg-RdmW">
    <mxGraphModel dx="4654" dy="1249" grid="1" gridSize="10" guides="1" tooltips="1" connect="1" arrows="1" fold="1" page="1" pageScale="1" pageWidth="1169" pageHeight="827" background="light-dark(#000000,#000000)" math="0" shadow="0" adaptiveColors="auto">
      <root>
        <mxCell id="0" />
        <mxCell id="1" parent="0" />
        <mxCell id="WvkAjxly0uFirAbVy60p-1" value="RF1.1 Registro de usuario" style="rounded=0;whiteSpace=wrap;html=1;fillColor=light-dark(#FFFFFF,#99004D);" parent="1" vertex="1">
          <mxGeometry x="-920" y="635" width="120" height="60" as="geometry" />
        </mxCell>
        <mxCell id="WvkAjxly0uFirAbVy60p-2" value="RF1.2 Iniciar sesión" style="rounded=0;whiteSpace=wrap;html=1;fillColor=light-dark(#FFFFFF,#99004D);" parent="1" vertex="1">
          <mxGeometry x="-450" y="635" width="120" height="60" as="geometry" />
        </mxCell>
        <mxCell id="WvkAjxly0uFirAbVy60p-3" value="&lt;span id=&quot;docs-internal-guid-01500351-7fff-d3d4-2e67-755fd12e47eb&quot;&gt;&lt;span style=&quot;font-size: 10pt; font-family: Arial, sans-serif; background-color: transparent; font-variant-numeric: normal; font-variant-east-asian: normal; font-variant-alternates: normal; font-variant-position: normal; font-variant-emoji: normal; vertical-align: baseline; white-space-collapse: preserve;&quot;&gt;&lt;font style=&quot;color: light-dark(rgb(0, 0, 0), rgb(255, 255, 255));&quot;&gt;&lt;span style=&quot;font-family: Helvetica; font-size: 12px; white-space-collapse: collapse;&quot;&gt;RF2.2&amp;nbsp;&lt;/span&gt;Visualización de señas a texto en tiempo real&lt;/font&gt;&lt;/span&gt;&lt;/span&gt;" style="rounded=0;whiteSpace=wrap;html=1;fillColor=light-dark(#FFFFFF,#00994D);" parent="1" vertex="1">
          <mxGeometry x="-1330" y="414" width="120" height="60" as="geometry" />
        </mxCell>
        <mxCell id="WvkAjxly0uFirAbVy60p-4" value="&lt;span id=&quot;docs-internal-guid-7a39e423-7fff-f3a0-fd50-4f62a850706c&quot;&gt;&lt;span style=&quot;font-size: 10pt; font-family: Arial, sans-serif; background-color: transparent; font-variant-numeric: normal; font-variant-east-asian: normal; font-variant-alternates: normal; font-variant-position: normal; font-variant-emoji: normal; vertical-align: baseline; white-space-collapse: preserve;&quot;&gt;&lt;font style=&quot;color: light-dark(rgb(0, 0, 0), rgb(255, 255, 255));&quot;&gt;&lt;span style=&quot;font-family: Helvetica; font-size: 12px; white-space-collapse: collapse;&quot;&gt;RF2.1&amp;nbsp;&lt;/span&gt;Activación de reconocimiento de señas en tiempo real &lt;/font&gt;&lt;/span&gt;&lt;/span&gt;" style="rounded=0;whiteSpace=wrap;html=1;fillColor=light-dark(#FFFFFF,#00994D);" parent="1" vertex="1">
          <mxGeometry x="-1630" y="404" width="140" height="70" as="geometry" />
        </mxCell>
        <mxCell id="WvkAjxly0uFirAbVy60p-7" value="RF2.6&amp;nbsp;&lt;span id=&quot;docs-internal-guid-226ccbba-7fff-e42d-68e2-30f1a162f163&quot;&gt;&lt;span style=&quot;font-size: 10pt; font-family: Arial, sans-serif; background-color: transparent; font-variant-numeric: normal; font-variant-east-asian: normal; font-variant-alternates: normal; font-variant-position: normal; font-variant-emoji: normal; vertical-align: baseline; white-space-collapse: preserve;&quot;&gt;&lt;font style=&quot;color: light-dark(rgb(0, 0, 0), rgb(255, 255, 255));&quot;&gt;Alerta visual ante sonidos fuertes&lt;/font&gt;&lt;/span&gt;&lt;/span&gt;" style="rounded=0;whiteSpace=wrap;html=1;fillColor=light-dark(#FFFFFF,#00994D);" parent="1" vertex="1">
          <mxGeometry x="-40" y="404" width="120" height="60" as="geometry" />
        </mxCell>
        <mxCell id="WvkAjxly0uFirAbVy60p-8" value="RF2.5&amp;nbsp;&lt;span id=&quot;docs-internal-guid-a5b4d989-7fff-e6ae-7f25-8bc14fd8be2e&quot;&gt;&lt;span style=&quot;font-size: 10pt; font-family: Arial, sans-serif; background-color: transparent; font-variant-numeric: normal; font-variant-east-asian: normal; font-variant-alternates: normal; font-variant-position: normal; font-variant-emoji: normal; vertical-align: baseline; white-space-collapse: preserve;&quot;&gt;&lt;font style=&quot;color: light-dark(rgb(0, 0, 0), rgb(255, 255, 255));&quot;&gt;Traducción de texto a emojis&lt;/font&gt;&lt;/span&gt;&lt;/span&gt;" style="rounded=0;whiteSpace=wrap;html=1;fillColor=light-dark(#FFFFFF,#994C00);" parent="1" vertex="1">
          <mxGeometry x="-160" y="140" width="120" height="60" as="geometry" />
        </mxCell>
        <mxCell id="WvkAjxly0uFirAbVy60p-9" value="&lt;span id=&quot;docs-internal-guid-1503e3e0-7fff-6435-415f-a98bcec0ccd2&quot;&gt;&lt;span style=&quot;font-size: 10pt; font-family: Arial, sans-serif; background-color: transparent; font-variant-numeric: normal; font-variant-east-asian: normal; font-variant-alternates: normal; font-variant-position: normal; font-variant-emoji: normal; vertical-align: baseline; white-space-collapse: preserve;&quot;&gt;&lt;font style=&quot;color: light-dark(rgb(0, 0, 0), rgb(255, 255, 255));&quot;&gt;&lt;span style=&quot;font-family: Helvetica; font-size: 12px; white-space-collapse: collapse;&quot;&gt;RF2.4&amp;nbsp;&lt;/span&gt;Traducción de audio a texto&lt;/font&gt;&lt;/span&gt;&lt;span style=&quot;font-size: 10pt; font-family: Arial, sans-serif; color: rgb(0, 0, 0); background-color: transparent; font-variant-numeric: normal; font-variant-east-asian: normal; font-variant-alternates: normal; font-variant-position: normal; font-variant-emoji: normal; vertical-align: baseline; white-space-collapse: preserve;&quot;&gt; &lt;/span&gt;&lt;/span&gt;" style="rounded=0;whiteSpace=wrap;html=1;fillColor=light-dark(#FFFFFF,#00994D);" parent="1" vertex="1">
          <mxGeometry x="-470" y="404" width="120" height="60" as="geometry" />
        </mxCell>
        <mxCell id="WvkAjxly0uFirAbVy60p-10" value="&lt;span id=&quot;docs-internal-guid-856cf4e1-7fff-191a-303c-af74ce2e88ed&quot;&gt;&lt;span style=&quot;font-size: 10pt; font-family: Arial, sans-serif; background-color: transparent; font-variant-numeric: normal; font-variant-east-asian: normal; font-variant-alternates: normal; font-variant-position: normal; font-variant-emoji: normal; vertical-align: baseline; white-space-collapse: preserve;&quot;&gt;&lt;font&gt;&lt;span style=&quot;font-family: Helvetica; font-size: 12px; white-space-collapse: collapse;&quot;&gt;F2.3&amp;nbsp;&lt;/span&gt;Conversión de texto a audio&lt;/font&gt;&lt;/span&gt;&lt;span style=&quot;font-size: 10pt; font-family: Arial, sans-serif; color: rgb(0, 0, 0); background-color: transparent; font-variant-numeric: normal; font-variant-east-asian: normal; font-variant-alternates: normal; font-variant-position: normal; font-variant-emoji: normal; vertical-align: baseline; white-space-collapse: preserve;&quot;&gt; &lt;/span&gt;&lt;/span&gt;" style="rounded=0;whiteSpace=wrap;html=1;fillColor=light-dark(#FFFFFF,#00994D);" parent="1" vertex="1">
          <mxGeometry x="-920" y="404" width="120" height="60" as="geometry" />
        </mxCell>
        <mxCell id="WvkAjxly0uFirAbVy60p-11" value="RF3.3&amp;nbsp;&lt;span id=&quot;docs-internal-guid-7f677f85-7fff-bd89-fb28-1550ff47d3db&quot;&gt;&lt;span style=&quot;font-size: 10pt; font-family: Arial, sans-serif; background-color: transparent; font-variant-numeric: normal; font-variant-east-asian: normal; font-variant-alternates: normal; font-variant-position: normal; font-variant-emoji: normal; vertical-align: baseline; white-space-collapse: preserve;&quot;&gt;&lt;font style=&quot;color: light-dark(rgb(0, 0, 0), rgb(255, 255, 255));&quot;&gt;Filtrado de traducciones guardadas&lt;/font&gt;&lt;/span&gt;&lt;/span&gt;" style="rounded=0;whiteSpace=wrap;html=1;fillColor=light-dark(#FFFFFF,#994C00);" parent="1" vertex="1">
          <mxGeometry x="-920" y="140" width="120" height="60" as="geometry" />
        </mxCell>
        <mxCell id="WvkAjxly0uFirAbVy60p-12" value="RF3.2&amp;nbsp;&lt;span id=&quot;docs-internal-guid-91cb651a-7fff-793b-d6da-a58da87b24dc&quot;&gt;&lt;span style=&quot;font-size: 10pt; font-family: Arial, sans-serif; background-color: transparent; font-variant-numeric: normal; font-variant-east-asian: normal; font-variant-alternates: normal; font-variant-position: normal; font-variant-emoji: normal; vertical-align: baseline; white-space-collapse: preserve;&quot;&gt;&lt;font style=&quot;color: light-dark(rgb(0, 0, 0), rgb(255, 255, 255));&quot;&gt;Visualización de traducciones guardadas&lt;/font&gt;&lt;/span&gt;&lt;/span&gt;" style="rounded=0;whiteSpace=wrap;html=1;fillColor=light-dark(#FFFFFF,#00994D);" parent="1" vertex="1">
          <mxGeometry x="800" y="404" width="120" height="60" as="geometry" />
        </mxCell>
        <mxCell id="WvkAjxly0uFirAbVy60p-13" value="RF3.1&amp;nbsp;&lt;span id=&quot;docs-internal-guid-b73c566d-7fff-1eea-9155-1496f8b53936&quot;&gt;&lt;span style=&quot;font-size: 10pt; font-family: Arial, sans-serif; background-color: transparent; font-variant-numeric: normal; font-variant-east-asian: normal; font-variant-alternates: normal; font-variant-position: normal; font-variant-emoji: normal; vertical-align: baseline; white-space-collapse: preserve;&quot;&gt;&lt;font style=&quot;color: light-dark(rgb(0, 0, 0), rgb(255, 255, 255));&quot;&gt;Guardar traducciones realizada&lt;/font&gt;&lt;/span&gt;&lt;span style=&quot;font-size: 10pt; font-family: Arial, sans-serif; color: rgb(0, 0, 0); background-color: transparent; font-variant-numeric: normal; font-variant-east-asian: normal; font-variant-alternates: normal; font-variant-position: normal; font-variant-emoji: normal; vertical-align: baseline; white-space-collapse: preserve;&quot;&gt;s&lt;/span&gt;&lt;/span&gt;" style="rounded=0;whiteSpace=wrap;html=1;fillColor=light-dark(#FFFFFF,#00994D);" parent="1" vertex="1">
          <mxGeometry x="540" y="404" width="120" height="60" as="geometry" />
        </mxCell>
        <mxCell id="WvkAjxly0uFirAbVy60p-15" value="RF4.2&amp;nbsp;&lt;span id=&quot;docs-internal-guid-0ebb0e50-7fff-6a43-9035-0d6b69208617&quot;&gt;&lt;span style=&quot;font-size: 10pt; font-family: Arial, sans-serif; background-color: transparent; font-variant-numeric: normal; font-variant-east-asian: normal; font-variant-alternates: normal; font-variant-position: normal; font-variant-emoji: normal; vertical-align: baseline; white-space-collapse: preserve;&quot;&gt;&lt;font style=&quot;color: light-dark(rgb(0, 0, 0), rgb(255, 255, 255));&quot;&gt;Creación de recordatorios con alertas visuales o sonoras&lt;/font&gt;&lt;/span&gt;&lt;/span&gt;" style="rounded=0;whiteSpace=wrap;html=1;fillColor=light-dark(#FFFFFF,#994C00);" parent="1" vertex="1">
          <mxGeometry x="290" y="130" width="120" height="70" as="geometry" />
        </mxCell>
        <mxCell id="WvkAjxly0uFirAbVy60p-17" value="RF4.1&lt;font&gt;&amp;nbsp;&lt;span id=&quot;docs-internal-guid-3e4adbe8-7fff-2cd9-a53f-db0251295a97&quot;&gt;&lt;span style=&quot;font-size: 10pt; font-family: Arial, sans-serif; background-color: transparent; font-variant-numeric: normal; font-variant-east-asian: normal; font-variant-alternates: normal; font-variant-position: normal; font-variant-emoji: normal; vertical-align: baseline; white-space-collapse: preserve;&quot;&gt;Detección de múltiples hablantes o sonidos&lt;/span&gt;&lt;/span&gt;&lt;/font&gt;" style="rounded=0;whiteSpace=wrap;html=1;fillColor=light-dark(#FFFFFF,#994C00);" parent="1" vertex="1">
          <mxGeometry x="710" y="140" width="120" height="60" as="geometry" />
        </mxCell>
        <mxCell id="WvkAjxly0uFirAbVy60p-21" value="RF5.3&amp;nbsp;&lt;span id=&quot;docs-internal-guid-e9732c75-7fff-9a38-fac4-20a0ac103f06&quot;&gt;&lt;span style=&quot;font-size: 10pt; font-family: Arial, sans-serif; background-color: transparent; font-variant-numeric: normal; font-variant-east-asian: normal; font-variant-alternates: normal; font-variant-position: normal; font-variant-emoji: normal; vertical-align: baseline; white-space-collapse: preserve;&quot;&gt;&lt;font style=&quot;color: light-dark(rgb(0, 0, 0), rgb(255, 255, 255));&quot;&gt;Gestión de permisos del dispositivo&lt;/font&gt;&lt;/span&gt;&lt;/span&gt;" style="rounded=0;whiteSpace=wrap;html=1;fillColor=light-dark(#FFFFFF,#00994D);" parent="1" vertex="1">
          <mxGeometry x="-1910" y="409" width="120" height="60" as="geometry" />
        </mxCell>
        <mxCell id="WvkAjxly0uFirAbVy60p-22" value="RF5.2&amp;nbsp;&lt;span id=&quot;docs-internal-guid-3dab809d-7fff-15f9-7d6d-75a5f49bca89&quot;&gt;&lt;span style=&quot;font-size: 10pt; font-family: Arial, sans-serif; background-color: transparent; font-variant-numeric: normal; font-variant-east-asian: normal; font-variant-alternates: normal; font-variant-position: normal; font-variant-emoji: normal; vertical-align: baseline; white-space-collapse: preserve;&quot;&gt;&lt;font style=&quot;color: light-dark(rgb(0, 0, 0), rgb(255, 255, 255));&quot;&gt;Historial de sesiones&lt;/font&gt;&lt;/span&gt;&lt;/span&gt;" style="rounded=0;whiteSpace=wrap;html=1;fillColor=light-dark(#FFFFFF,#994C00);" parent="1" vertex="1">
          <mxGeometry x="-480" y="140" width="120" height="60" as="geometry" />
        </mxCell>
        <mxCell id="WvkAjxly0uFirAbVy60p-23" value="RF5.1&amp;nbsp;&lt;span id=&quot;docs-internal-guid-555d414e-7fff-ca62-90c6-3c7ba6229b5f&quot;&gt;&lt;span style=&quot;font-size: 10pt; font-family: Arial, sans-serif; background-color: transparent; font-variant-numeric: normal; font-variant-east-asian: normal; font-variant-alternates: normal; font-variant-position: normal; font-variant-emoji: normal; vertical-align: baseline; white-space-collapse: preserve;&quot;&gt;&lt;font style=&quot;color: light-dark(rgb(0, 0, 0), rgb(255, 255, 255));&quot;&gt;Gestión de datos del perfil&lt;/font&gt;&lt;/span&gt;&lt;/span&gt;" style="rounded=0;whiteSpace=wrap;html=1;fillColor=light-dark(#FFFFFF,#00994D);" parent="1" vertex="1">
          <mxGeometry x="260" y="404" width="120" height="60" as="geometry" />
        </mxCell>
        <mxCell id="WvkAjxly0uFirAbVy60p-28" value="&lt;font style=&quot;font-size: 34px;&quot;&gt;Nivel Alto&lt;/font&gt;" style="text;html=1;align=center;verticalAlign=middle;resizable=0;points=[];autosize=1;strokeColor=none;fillColor=none;" parent="1" vertex="1">
          <mxGeometry x="-1130" y="640" width="170" height="50" as="geometry" />
        </mxCell>
        <mxCell id="WvkAjxly0uFirAbVy60p-29" value="&lt;font style=&quot;font-size: 34px;&quot;&gt;Nivel Bajo&lt;/font&gt;" style="text;html=1;align=center;verticalAlign=middle;resizable=0;points=[];autosize=1;strokeColor=none;fillColor=none;" parent="1" vertex="1">
          <mxGeometry x="-1130" y="150" width="180" height="50" as="geometry" />
        </mxCell>
        <mxCell id="WvkAjxly0uFirAbVy60p-30" value="&lt;font style=&quot;font-size: 34px;&quot;&gt;Nivel Medio&lt;/font&gt;" style="text;html=1;align=center;verticalAlign=middle;resizable=0;points=[];autosize=1;strokeColor=none;fillColor=none;" parent="1" vertex="1">
          <mxGeometry x="-2130" y="414" width="200" height="50" as="geometry" />
        </mxCell>
        <mxCell id="mDVf1uregeAPHFzaJ2qb-1" value="RNF4 Seguridad" style="rounded=0;whiteSpace=wrap;html=1;" vertex="1" parent="1">
          <mxGeometry x="-610" y="730" width="120" height="60" as="geometry" />
        </mxCell>
        <mxCell id="mDVf1uregeAPHFzaJ2qb-5" value="RNF5 Adaptabilidad" style="rounded=0;whiteSpace=wrap;html=1;" vertex="1" parent="1">
          <mxGeometry x="-770" y="730" width="120" height="60" as="geometry" />
        </mxCell>
        <mxCell id="mDVf1uregeAPHFzaJ2qb-6" value="RNF4 Seguridad" style="rounded=0;whiteSpace=wrap;html=1;" vertex="1" parent="1">
          <mxGeometry x="-300" y="730" width="120" height="60" as="geometry" />
        </mxCell>
        <mxCell id="mDVf1uregeAPHFzaJ2qb-7" value="RNF1 Rendimiento" style="rounded=0;whiteSpace=wrap;html=1;" vertex="1" parent="1">
          <mxGeometry x="-150" y="730" width="120" height="60" as="geometry" />
        </mxCell>
        <mxCell id="mDVf1uregeAPHFzaJ2qb-8" value="RNF4 Seguridad" style="rounded=0;whiteSpace=wrap;html=1;" vertex="1" parent="1">
          <mxGeometry x="-1770" y="490" width="120" height="60" as="geometry" />
        </mxCell>
        <mxCell id="mDVf1uregeAPHFzaJ2qb-9" value="RNF2 Utilizacion" style="rounded=0;whiteSpace=wrap;html=1;" vertex="1" parent="1">
          <mxGeometry x="-1460" y="490" width="120" height="60" as="geometry" />
        </mxCell>
        <mxCell id="mDVf1uregeAPHFzaJ2qb-10" value="RNF2 Utilizacion" style="rounded=0;whiteSpace=wrap;html=1;" vertex="1" parent="1">
          <mxGeometry x="-1060" y="490" width="120" height="60" as="geometry" />
        </mxCell>
        <mxCell id="mDVf1uregeAPHFzaJ2qb-11" value="RNF1 Rendimiento" style="rounded=0;whiteSpace=wrap;html=1;" vertex="1" parent="1">
          <mxGeometry x="-1200" y="490" width="120" height="60" as="geometry" />
        </mxCell>
        <mxCell id="mDVf1uregeAPHFzaJ2qb-12" value="RNF2 Utilizacion" style="rounded=0;whiteSpace=wrap;html=1;" vertex="1" parent="1">
          <mxGeometry x="-630" y="490" width="120" height="60" as="geometry" />
        </mxCell>
        <mxCell id="mDVf1uregeAPHFzaJ2qb-13" value="RNF1 Rendimiento" style="rounded=0;whiteSpace=wrap;html=1;" vertex="1" parent="1">
          <mxGeometry x="-770" y="490" width="120" height="60" as="geometry" />
        </mxCell>
        <mxCell id="mDVf1uregeAPHFzaJ2qb-15" value="RNF1 Rendimiento" style="rounded=0;whiteSpace=wrap;html=1;" vertex="1" parent="1">
          <mxGeometry x="-330" y="490" width="120" height="60" as="geometry" />
        </mxCell>
        <mxCell id="mDVf1uregeAPHFzaJ2qb-16" value="RNF2 Utilizacion" style="rounded=0;whiteSpace=wrap;html=1;" vertex="1" parent="1">
          <mxGeometry x="-180" y="490" width="120" height="60" as="geometry" />
        </mxCell>
        <mxCell id="mDVf1uregeAPHFzaJ2qb-17" value="RNF3 Compatibilidad" style="rounded=0;whiteSpace=wrap;html=1;" vertex="1" parent="1">
          <mxGeometry x="110" y="490" width="120" height="60" as="geometry" />
        </mxCell>
        <mxCell id="mDVf1uregeAPHFzaJ2qb-18" value="RNF4 Seguridad" style="rounded=0;whiteSpace=wrap;html=1;" vertex="1" parent="1">
          <mxGeometry x="400" y="490" width="120" height="60" as="geometry" />
        </mxCell>
        <mxCell id="mDVf1uregeAPHFzaJ2qb-19" value="RNF4 Seguridad" style="rounded=0;whiteSpace=wrap;html=1;" vertex="1" parent="1">
          <mxGeometry x="670" y="490" width="120" height="60" as="geometry" />
        </mxCell>
        <mxCell id="mDVf1uregeAPHFzaJ2qb-20" value="RNF4 Seguridad" style="rounded=0;whiteSpace=wrap;html=1;" vertex="1" parent="1">
          <mxGeometry x="930" y="490" width="100" height="60" as="geometry" />
        </mxCell>
        <mxCell id="mDVf1uregeAPHFzaJ2qb-21" value="RNF1 Rendimiento" style="rounded=0;whiteSpace=wrap;html=1;" vertex="1" parent="1">
          <mxGeometry x="-780" y="230" width="120" height="60" as="geometry" />
        </mxCell>
        <mxCell id="mDVf1uregeAPHFzaJ2qb-22" value="RNF2 Utilizacion" style="rounded=0;whiteSpace=wrap;html=1;" vertex="1" parent="1">
          <mxGeometry x="-630" y="230" width="120" height="60" as="geometry" />
        </mxCell>
        <mxCell id="mDVf1uregeAPHFzaJ2qb-23" value="RNF2 Utilizacion" style="rounded=0;whiteSpace=wrap;html=1;" vertex="1" parent="1">
          <mxGeometry x="-330" y="230" width="120" height="60" as="geometry" />
        </mxCell>
        <mxCell id="mDVf1uregeAPHFzaJ2qb-24" value="RNF2 Utilizacion" style="rounded=0;whiteSpace=wrap;html=1;" vertex="1" parent="1">
          <mxGeometry x="-30" y="230" width="120" height="60" as="geometry" />
        </mxCell>
        <mxCell id="mDVf1uregeAPHFzaJ2qb-25" value="RNF1 Rendimiento" style="rounded=0;whiteSpace=wrap;html=1;" vertex="1" parent="1">
          <mxGeometry x="130" y="230" width="120" height="60" as="geometry" />
        </mxCell>
        <mxCell id="mDVf1uregeAPHFzaJ2qb-26" value="RNF2 Utilizacion" style="rounded=0;whiteSpace=wrap;html=1;" vertex="1" parent="1">
          <mxGeometry x="570" y="230" width="120" height="60" as="geometry" />
        </mxCell>
        <mxCell id="mDVf1uregeAPHFzaJ2qb-27" value="RNF1 Rendimiento" style="rounded=0;whiteSpace=wrap;html=1;" vertex="1" parent="1">
          <mxGeometry x="430" y="230" width="120" height="60" as="geometry" />
        </mxCell>
        <mxCell id="mDVf1uregeAPHFzaJ2qb-28" value="RNF3 Compatibilidad" style="rounded=0;whiteSpace=wrap;html=1;" vertex="1" parent="1">
          <mxGeometry x="850" y="230" width="120" height="60" as="geometry" />
        </mxCell>
        <mxCell id="mDVf1uregeAPHFzaJ2qb-29" value="RNF2 Utilizacion" style="rounded=0;whiteSpace=wrap;html=1;" vertex="1" parent="1">
          <mxGeometry x="1050" y="490" width="109" height="60" as="geometry" />
        </mxCell>
      </root>
    </mxGraphModel>
  </diagram>
</mxfile>
